<?xml version="1.0" encoding="utf-8"?>
<!-- Generator: Adobe Illustrator 27.0.0, SVG Export Plug-In . SVG Version: 6.00 Build 0)  -->
<svg version="1.1" id="Layer_1" xmlns="http://www.w3.org/2000/svg" xmlns:xlink="http://www.w3.org/1999/xlink" x="0px" y="0px"
	 viewBox="0 0 128 128" style="enable-background:new 0 0 128 128;" xml:space="preserve">
<style type="text/css">
	.st0{fill:#5A00FF;}
	.st1{fill:#FFFFFF;}
</style>
<g>
	<rect class="st0" width="128" height="128"/>
</g>
<g>
	<path class="st1" d="M37.2,53.6c-1,0-1.8,0.6-2.2,1.5l-5.2,13.8l-5.2-13.8c-0.5-1.2-1.8-1.8-3-1.3c-1.2,0.5-1.8,1.8-1.3,3
		c0,0,0,0,0,0l6.4,15.3c0.5,1.3,1.8,2.2,3.3,2.2s2.7-0.9,3.3-2.2l6.3-15.3c0.5-1.2-0.1-2.6-1.3-3.1C37.8,53.7,37.5,53.6,37.2,53.6z
		 M47.1,53.6c-0.8,0-1.6,0.5-1.9,1.3l-6.9,16.5c-0.4,1.1,0.1,2.3,1.2,2.7c1.1,0.4,2.3-0.1,2.7-1.1L49,56.5c0.4-1.1-0.1-2.3-1.1-2.7
		C47.7,53.7,47.4,53.6,47.1,53.6z M60.8,55.8C60,54,58,53.2,56.2,53.9c-0.2,0.1-0.4,0.2-0.6,0.3c-0.6,0.4-1,0.9-1.3,1.6l-6.3,15.3
		c-0.5,1.2,0.1,2.6,1.3,3.1c0.3,0.1,0.6,0.2,0.9,0.2c1,0,1.8-0.6,2.2-1.5l5.2-13.8l5.2,13.8c0.5,1.2,1.8,1.8,3,1.3
		c1.2-0.5,1.8-1.8,1.3-3c0,0,0,0,0,0L60.8,55.8L60.8,55.8z"/>
	<g>
		<path class="st1" d="M72.4,69.5c0-0.2,0.1-0.5,0.2-0.9l3.5-9.5c0.4-1,1-1.5,2-1.5c1,0,1.7,0.5,2.1,1.5l3.5,9.5
			c0.1,0.3,0.2,0.6,0.2,0.9c0,0.7-0.6,1.3-1.3,1.3c-0.8,0-1.2-0.3-1.4-1.2l-0.7-2h-4.6l-0.7,2c-0.2,0.9-0.7,1.2-1.4,1.2
			C72.9,70.7,72.4,70.2,72.4,69.5z M79.8,65.4l-1.7-5.3h-0.1l-1.7,5.3H79.8z"/>
		<path class="st1" d="M85.5,69.1v-10c0-0.9,0.5-1.4,1.3-1.4h3.6c3.8,0,6.1,2.3,6.1,6.4c0,4.1-2.3,6.5-6.1,6.5h-3.6
			C86,70.5,85.5,70,85.5,69.1z M90,68.3c2.4,0,3.7-1.5,3.7-4.2c0-2.7-1.3-4.2-3.7-4.2h-1.9v8.4L90,68.3L90,68.3z"/>
		<path class="st1" d="M98,68.3c-0.1-0.2-0.1-0.5-0.1-0.7c0-0.7,0.5-1.2,1.2-1.2c0.5,0,0.9,0.2,1.2,0.8c0.4,1,1.4,1.4,2.6,1.4
			c1.4,0,2.4-0.7,2.4-1.6c0-0.8-0.6-1.3-2.2-1.7l-1.4-0.3c-2.6-0.5-3.8-1.7-3.8-3.6c0-2.3,2-3.9,4.9-3.9c2.3,0,4.1,1,4.7,2.7
			c0.1,0.2,0.1,0.4,0.1,0.6c0,0.6-0.5,1.1-1.1,1.1c-0.6,0-1-0.2-1.3-0.8c-0.4-1-1.3-1.4-2.4-1.4c-1.3,0-2.2,0.6-2.2,1.6
			c0,0.8,0.6,1.3,2.1,1.6l1.4,0.3c2.7,0.5,3.9,1.6,3.9,3.6c0,2.5-2,4.1-5.2,4.1C100.2,70.8,98.5,69.7,98,68.3z"/>
	</g>
</g>
</svg>
